<svg xmlns="http://www.w3.org/2000/svg" viewBox="0 0 355.5648694044104 247.2" height="247.2" width="355.5648694044104"><g><svg viewBox="0 0 395.52 274.97807689430647" height="247.2" width="355.5648694044104"><g transform="matrix(1,0,0,1,0,203.97651774932143)"><svg viewBox="0 0 395.52 71.00155914498501" height="71.00155914498501" width="395.52"><g id="textblocktransform"><svg viewBox="0 0 395.52 71.00155914498501" height="71.00155914498501" width="395.52" id="textblock"><g><svg viewBox="0 0 395.52 71.00155914498501" height="71.00155914498501" width="395.52"><g transform="matrix(1,0,0,1,0,0)"><svg width="395.52" viewBox="5.05 -34.1 258.45 46.400000000000006" height="71.00155914498501" data-palette-color="#f70f03"><path d="M8.95 0L5.05 0 5.05-34.1 8.95-34.1 8.95 0ZM37.25 0L33.85 0 33.35-5.25 33.35-15.5Q33.35-18.73 31.97-20.14 30.6-21.55 27.85-21.55L27.85-21.55Q26.3-21.55 25.04-21.1 23.77-20.65 23.04-19.71 22.3-18.78 22.3-17.3L22.3-17.3 17.95-17.3Q17.95-19.9 19.22-21.49 20.5-23.08 22.73-23.79 24.97-24.5 27.85-24.5L27.85-24.5Q30.6-24.5 32.72-23.58 34.85-22.65 36.05-20.64 37.25-18.63 37.25-15.4L37.25-15.4 37.25 0ZM25.7 0.6L25.7 0.6Q22.75 0.6 20.82-0.45 18.9-1.5 17.95-3.18 17-4.85 17-6.7L17-6.7Q17-9.13 18.21-10.65 19.42-12.18 21.52-12.89 23.62-13.6 26.25-13.6L26.25-13.6Q28.12-13.6 30.01-13.23 31.9-12.85 33.7-12.2L33.7-12.2 33.7-9.75Q32.2-10.35 30.31-10.7 28.42-11.05 26.85-11.05L26.85-11.05Q24.45-11.05 22.8-10.06 21.15-9.08 21.15-6.7L21.15-6.7Q21.15-4.95 22.41-3.7 23.67-2.45 26.45-2.45L26.45-2.45Q28.4-2.45 29.96-3.36 31.52-4.28 32.44-5.65 33.35-7.03 33.35-8.4L33.35-8.4 34.3-8.4Q34.3-6 33.26-3.95 32.22-1.9 30.3-0.65 28.37 0.6 25.7 0.6ZM50.47 0L46.57 0 46.57-23.95 50.47-23.95 50.47 0ZM50.47-10.8L49.27-10.8Q49.27-15.35 50.15-18.36 51.02-21.38 52.71-22.86 54.4-24.35 56.82-24.35L56.82-24.35Q57.62-24.35 58.28-24.24 58.95-24.13 59.62-23.9L59.62-23.9 59.37-20.05Q58.67-20.28 57.84-20.44 57.02-20.6 56.37-20.6L56.37-20.6Q54.25-20.6 52.95-19.39 51.65-18.18 51.06-15.98 50.47-13.78 50.47-10.8L50.47-10.8ZM82.84 0L79.44 0 78.94-5.25 78.94-15.5Q78.94-18.73 77.57-20.14 76.19-21.55 73.44-21.55L73.44-21.55Q71.89-21.55 70.63-21.1 69.37-20.65 68.63-19.71 67.89-18.78 67.89-17.3L67.89-17.3 63.54-17.3Q63.54-19.9 64.82-21.49 66.09-23.08 68.33-23.79 70.57-24.5 73.44-24.5L73.44-24.5Q76.19-24.5 78.32-23.58 80.44-22.65 81.64-20.64 82.84-18.63 82.84-15.4L82.84-15.4 82.84 0ZM71.29 0.6L71.29 0.6Q68.34 0.6 66.42-0.45 64.49-1.5 63.54-3.18 62.59-4.85 62.59-6.7L62.59-6.7Q62.59-9.13 63.8-10.65 65.02-12.18 67.12-12.89 69.22-13.6 71.84-13.6L71.84-13.6Q73.72-13.6 75.61-13.23 77.49-12.85 79.29-12.2L79.29-12.2 79.29-9.75Q77.79-10.35 75.91-10.7 74.02-11.05 72.44-11.05L72.44-11.05Q70.04-11.05 68.39-10.06 66.74-9.08 66.74-6.7L66.74-6.7Q66.74-4.95 68-3.7 69.27-2.45 72.04-2.45L72.04-2.45Q73.99-2.45 75.56-3.36 77.12-4.28 78.03-5.65 78.94-7.03 78.94-8.4L78.94-8.4 79.89-8.4Q79.89-6 78.86-3.95 77.82-1.9 75.89-0.65 73.97 0.6 71.29 0.6ZM103.12 0.6L103.12 0.6Q100.72 0.6 98.78-0.65 96.84-1.9 95.7-4.31 94.57-6.73 94.57-10.2L94.57-10.2 96.07-10.2Q96.07-7.88 97.03-6.24 97.99-4.6 99.52-3.75 101.04-2.9 102.72-2.9L102.72-2.9Q104.64-2.9 106.24-4 107.84-5.1 108.8-7.15 109.77-9.2 109.77-12.05L109.77-12.05Q109.77-14.85 108.82-16.86 107.87-18.88 106.25-19.96 104.64-21.05 102.67-21.05L102.67-21.05Q100.97-21.05 99.45-20.21 97.94-19.38 97-17.75 96.07-16.13 96.07-13.75L96.07-13.75 94.57-13.75Q94.57-17.15 95.68-19.55 96.79-21.95 98.77-23.23 100.74-24.5 103.37-24.5L103.37-24.5Q106.19-24.5 108.55-22.99 110.92-21.48 112.34-18.68 113.77-15.88 113.77-12.05L113.77-12.05Q113.77-8.2 112.32-5.36 110.87-2.53 108.44-0.96 106.02 0.6 103.12 0.6ZM94.92 0L92.17 0 92.17-34.1 96.07-34.1 96.07-5.6 94.92 0ZM125.69 0L121.79 0 121.79-34.1 125.69-34.1 125.69 0ZM144.44 0.6L144.44 0.6Q141.21 0.6 138.7-0.83 136.19-2.25 134.74-5.05 133.29-7.85 133.29-11.95L133.29-11.95Q133.29-16.07 134.74-18.86 136.19-21.65 138.7-23.08 141.21-24.5 144.44-24.5L144.44-24.5Q147.64-24.5 150.15-23.08 152.66-21.65 154.1-18.86 155.54-16.07 155.54-11.95L155.54-11.95Q155.54-7.85 154.1-5.05 152.66-2.25 150.15-0.83 147.64 0.6 144.44 0.6ZM144.34-2.8L144.34-2.8Q146.66-2.8 148.29-3.91 149.91-5.03 150.75-7.08 151.59-9.13 151.59-11.95L151.59-11.95Q151.59-16.23 149.81-18.69 148.04-21.15 144.54-21.15L144.54-21.15Q142.19-21.15 140.57-20.04 138.96-18.93 138.12-16.86 137.29-14.8 137.29-11.95L137.29-11.95Q137.29-7.73 139.07-5.26 140.86-2.8 144.34-2.8ZM171.56 12.3L171.56 12.3Q167.88 12.3 165.18 11.26 162.48 10.23 161 8.49 159.51 6.75 159.51 4.65L159.51 4.65Q159.51 1.88 161.55 0.41 163.58-1.05 166.81-1.05L166.81-1.05 168.96 0.3Q166.26 0.3 164.78 1.43 163.31 2.55 163.31 4.5L163.31 4.5Q163.31 6.45 165.41 7.8 167.51 9.15 171.56 9.15L171.56 9.15Q174.56 9.15 176.82 8.29 179.08 7.43 180.34 6.04 181.61 4.65 181.61 3.05L181.61 3.05Q181.61 1.93 180.78 1.11 179.96 0.3 178.26 0.3L178.26 0.3 168.96 0.3Q166.53 0.3 164.77-0.44 163.01-1.18 162.06-2.38 161.11-3.58 161.11-5L161.11-5Q161.11-6.5 161.96-7.55 162.81-8.6 164.17-9.15 165.53-9.7 167.11-9.7L167.11-9.7 167.86-8.25Q167.11-8.25 166.34-7.91 165.58-7.58 165.07-6.91 164.56-6.25 164.56-5.25L164.56-5.25Q164.56-4.1 165.51-3.33 166.46-2.55 168.96-2.55L168.96-2.55 178.26-2.55Q181.63-2.55 183.57-1.13 185.51 0.3 185.51 2.85L185.51 2.85Q185.51 5.2 183.83 7.36 182.16 9.53 179.03 10.91 175.91 12.3 171.56 12.3ZM172.26-7L172.26-7Q169.51-7 167.3-8.1 165.08-9.2 163.8-11.18 162.51-13.15 162.51-15.75L162.51-15.75Q162.51-18.38 163.8-20.35 165.08-22.33 167.3-23.41 169.51-24.5 172.26-24.5L172.26-24.5Q174.93-24.5 177.12-23.41 179.31-22.33 180.61-20.35 181.91-18.38 181.91-15.75L181.91-15.75Q181.91-13.15 180.61-11.18 179.31-9.2 177.12-8.1 174.93-7 172.26-7ZM172.26-9.8L172.26-9.8Q175.01-9.8 176.53-11.5 178.06-13.2 178.06-15.75L178.06-15.75Q178.06-18.38 176.53-20.01 175.01-21.65 172.26-21.65L172.26-21.65Q169.53-21.65 167.97-20.01 166.41-18.38 166.41-15.75L166.41-15.75Q166.41-13.2 167.97-11.5 169.53-9.8 172.26-9.8ZM180.11-20.7L180.11-20.7 178.26-21.45Q178.26-23.55 179.08-25.14 179.91-26.73 181.43-27.61 182.96-28.5 185.06-28.5L185.06-28.5 184.76-24.65Q182.51-24.65 181.31-23.69 180.11-22.73 180.11-20.7ZM203.55 0L199.45 0 210.25-31.4 215-31.4 225.55 0 221.45 0 218.8-8.05 206.3-8.05 203.55 0ZM212.55-26.65L207.3-11.1 217.8-11.1 212.55-26.65ZM235.78 0L231.82 0 231.82-31.4 241.93-31.4Q247.1-31.4 249.84-28.79 252.57-26.18 252.57-21.7L252.57-21.7Q252.57-17.28 249.84-14.69 247.1-12.1 241.93-12.1L241.93-12.1 235.78-12.1 235.78 0ZM235.78-28.05L235.78-15.5 241.93-15.5Q245.2-15.5 246.89-17.18 248.57-18.85 248.57-21.7L248.57-21.7Q248.57-24.6 246.89-26.33 245.2-28.05 241.93-28.05L241.93-28.05 235.78-28.05ZM263.5 0L259.6 0 259.6-31.4 263.5-31.4 263.5 0Z" opacity="1" transform="matrix(1,0,0,1,0,0)" fill="#f70f03" class="wordmark-text-0" data-fill-palette-color="primary" id="text-0"/></svg></g></svg></g></svg></g></svg></g><g transform="matrix(1,0,0,1,112.53350520205076,0)"><svg viewBox="0 0 170.45298959589846 170.45298959589846" height="170.45298959589846" width="170.45298959589846"><g><svg/></g><g id="icon-0"><svg viewBox="0 0 170.45298959589846 170.45298959589846" height="170.45298959589846" width="170.45298959589846"><g><path d="M0 85.226c0-47.069 38.157-85.226 85.226-85.226 47.069 0 85.226 38.157 85.227 85.226 0 47.069-38.157 85.226-85.227 85.227-47.069 0-85.226-38.157-85.226-85.227zM85.226 164.05c43.533 0 78.823-35.29 78.824-78.823 0-43.533-35.29-78.823-78.824-78.824-43.533 0-78.823 35.29-78.823 78.823 0 43.533 35.29 78.823 78.823 78.824z" data-fill-palette-color="accent" fill="#f70f03" stroke="transparent"/><ellipse rx="84.37422984996974" ry="84.37422984996974" cx="85.22649479794923" cy="85.22649479794923" fill="#f70f03" stroke="transparent" stroke-width="0" fill-opacity="1" data-fill-palette-color="accent"/></g><g transform="matrix(1,0,0,1,40.1794111030345,38.131816389629286)"><svg viewBox="0 0 90.09416738982947 94.18935681663989" height="94.18935681663989" width="90.09416738982947"><g><svg xmlns="http://www.w3.org/2000/svg" xmlns:xlink="http://www.w3.org/1999/xlink" version="1.1" x="0" y="0" viewBox="2 1 44 46" enable-background="new 0 0 48 48" xml:space="preserve" height="94.18935681663989" width="90.09416738982947" class="icon-cg-0" data-fill-palette-color="quaternary" id="cg-0"><path fill-rule="evenodd" clip-rule="evenodd" d="M41 47L41 47H7l0 0c-2.762 0-5-2.238-5-5V2c0-0.552 0.447-1 1-1l0 0h34l0 0c0.414 0 0.77 0.252 0.922 0.611C37.972 1.73 38 1.862 38 2v0 14h7c0.553 0 1 0.448 1 1v25C46 44.762 43.762 47 41 47zM36 42V3H4v39l0 0 0 0c0 1.657 1.344 3 3 3h30.022C36.39 44.162 36 43.131 36 42zM44 18h-6v24c0 1.657 1.343 3 3 3s3-1.343 3-3V18zM7 40c0-0.552 0.447-1 1-1h9c0.553 0 1 0.448 1 1 0 0.553-0.447 1-1 1H8C7.447 41 7 40.553 7 40zM11.666 23.715c-0.381 0.381-0.999 0.381-1.381 0-0.381-0.381-0.381-1 0-1.381l5.905-5.905c0.032-0.047 0.053-0.101 0.095-0.143 0.197-0.197 0.457-0.288 0.715-0.282 0.258-0.006 0.518 0.084 0.715 0.282 0.042 0.042 0.062 0.096 0.095 0.143l4.19 4.19 2.19-2.19c0.032-0.047 0.053-0.101 0.095-0.143 0.197-0.197 0.457-0.288 0.715-0.281 0.258-0.007 0.518 0.084 0.715 0.281 0.042 0.042 0.062 0.096 0.095 0.143l3.905 3.905c0.381 0.381 0.381 1 0 1.381-0.382 0.381-1 0.381-1.381 0L25 20.381 23.381 22l0.334 0.334c0.381 0.381 0.381 1 0 1.381s-1 0.381-1.381 0L17 18.381 11.666 23.715zM23 29h9c0.553 0 1 0.448 1 1 0 0.553-0.447 1-1 1h-9c-0.553 0-1-0.447-1-1C22 29.448 22.447 29 23 29zM23 34h9c0.553 0 1 0.448 1 1 0 0.553-0.447 1-1 1h-9c-0.553 0-1-0.447-1-1C22 34.448 22.447 34 23 34zM23 39h9c0.553 0 1 0.448 1 1 0 0.553-0.447 1-1 1h-9c-0.553 0-1-0.447-1-1C22 39.448 22.447 39 23 39zM24 15.5c0 0.829-0.672 1.5-1.5 1.5S21 16.329 21 15.5s0.672-1.5 1.5-1.5S24 14.671 24 15.5zM27 10H13c-0.553 0-1-0.448-1-1s0.447-1 1-1h14c0.553 0 1 0.448 1 1S27.553 10 27 10zM8 34h9c0.553 0 1 0.448 1 1 0 0.553-0.447 1-1 1H8c-0.553 0-1-0.447-1-1C7 34.448 7.447 34 8 34zM18 30c0 0.553-0.447 1-1 1H8c-0.553 0-1-0.447-1-1 0-0.552 0.447-1 1-1h9C17.553 29 18 29.448 18 30z" fill="#ffd7ea" data-fill-palette-color="quaternary"/></svg></g></svg></g></svg></g></svg></g><g/></svg></g><defs/></svg>